<?xml version="1.0" standalone="no"?>
<!DOCTYPE svg PUBLIC "-//W3C//DTD SVG 20010904//EN"
 "http://www.w3.org/TR/2001/REC-SVG-20010904/DTD/svg10.dtd">
<svg version="1.0" xmlns="http://www.w3.org/2000/svg"
 width="889.000000pt" height="889.000000pt" viewBox="0 0 889.000000 889.000000"
 preserveAspectRatio="xMidYMid meet">
<metadata>
Created by potrace 1.11, written by Peter Selinger 2001-2013
</metadata>
<g transform="translate(0.000000,889.000000) scale(0.100000,-0.100000)"
fill="#000000" stroke="none">
<path d="M4315 8885 c-5 -2 -64 -8 -130 -15 -66 -6 -176 -18 -244 -26 -79 -10
-164 -13 -235 -10 -61 3 -160 8 -221 11 -131 6 -294 -9 -342 -32 -46 -21 -68
-59 -87 -147 -9 -39 -30 -131 -48 -203 -31 -132 -31 -133 -62 -137 -283 -43
-428 -78 -550 -135 -260 -120 -367 -281 -322 -483 41 -183 202 -367 454 -517
41 -25 72 -50 73 -60 3 -64 10 -198 11 -208 1 -7 5 -10 9 -8 10 7 15 -22 18
-118 1 -48 8 -102 16 -120 7 -18 16 -54 20 -81 l8 -49 -46 6 c-52 7 -54 4 -60
-73 -2 -32 0 -35 28 -38 l30 -3 1 -97 c0 -92 3 -102 42 -187 40 -88 46 -115
57 -263 8 -104 33 -167 116 -293 52 -80 82 -113 138 -151 37 -26 49 -30 87
-24 40 5 45 3 58 -22 7 -15 21 -88 30 -164 16 -130 16 -237 1 -468 -6 -87 -7
-89 -76 -123 -35 -18 -75 -40 -87 -48 -33 -20 -100 -87 -94 -94 3 -3 1 -5 -5
-5 -6 0 -19 -23 -29 -51 -15 -42 -26 -55 -59 -71 -71 -36 -213 -168 -285 -265
-16 -21 -50 -49 -77 -62 -56 -28 -120 -69 -148 -94 -21 -19 -117 -67 -134 -67
-6 0 -11 -4 -11 -8 0 -4 -15 -13 -33 -20 -19 -7 -51 -30 -73 -52 -21 -22 -43
-40 -48 -40 -9 0 -165 -54 -266 -93 -70 -26 -158 -64 -190 -83 -47 -27 -385
-192 -465 -227 -44 -19 -114 -47 -155 -62 -41 -15 -84 -32 -94 -37 -11 -6 -42
-18 -70 -28 -28 -10 -81 -32 -118 -49 -36 -17 -71 -31 -77 -31 -6 0 -11 -4
-11 -8 0 -4 -17 -14 -37 -21 -49 -18 -224 -103 -286 -139 -26 -16 -59 -40 -73
-55 -14 -15 -29 -25 -33 -22 -5 2 -29 -13 -54 -35 -84 -74 -77 63 -77 -1494
l0 -1386 4445 0 4445 0 0 742 c0 408 -2 739 -5 737 -2 -3 -7 -270 -11 -595 -3
-324 -7 -650 -8 -724 l-1 -135 -160 1 c-510 5 -1349 15 -1351 17 -3 2 -11 95
-19 217 -3 47 -8 109 -10 138 -2 29 -7 99 -10 155 -3 56 -8 116 -10 132 -2 17
-7 57 -10 90 -3 33 -8 74 -10 90 -2 17 -7 57 -10 90 -10 97 -22 184 -32 230
-36 169 -42 251 -46 620 -2 209 -7 389 -9 400 -3 11 -9 40 -13 65 -4 25 -9 54
-12 65 -6 29 -11 110 -18 298 l-6 169 -45 113 c-28 70 -54 119 -67 128 -12 8
-31 23 -42 33 -11 11 -36 31 -57 46 -20 15 -42 34 -50 41 -27 28 -68 47 -228
112 -91 36 -174 69 -185 74 -11 5 -51 21 -90 36 -38 15 -83 34 -100 41 -16 7
-72 29 -124 49 -52 19 -108 42 -125 49 -17 8 -73 31 -125 51 -97 38 -256 104
-326 134 -22 10 -98 42 -168 72 l-129 54 -36 75 -37 75 -56 14 c-53 14 -59 13
-98 -7 l-42 -22 -67 37 c-115 63 -127 70 -126 79 1 5 4 31 8 58 4 42 18 65 89
160 47 61 103 141 127 179 23 37 45 67 49 67 3 0 14 -8 23 -17 9 -10 38 -38
65 -63 27 -25 97 -89 156 -144 109 -100 151 -136 160 -136 3 0 29 -16 58 -35
51 -33 54 -34 72 -17 11 9 28 30 39 45 l20 29 -38 40 c-42 43 -269 225 -374
300 -36 25 -82 64 -102 85 l-38 39 39 129 c78 257 133 429 143 449 6 12 29 73
51 136 39 116 67 270 65 358 -2 92 -1 95 32 90 30 -4 30 -4 30 42 l0 47 43 -2
c58 -2 64 1 65 37 1 39 6 43 55 43 l41 0 13 75 c7 41 15 85 18 96 5 23 13 21
-188 50 l-38 6 2 252 2 253 114 37 c62 21 117 35 122 31 5 -3 13 0 17 6 12 20
68 38 82 26 10 -8 12 -7 10 2 -2 8 28 23 79 41 95 32 77 22 225 127 64 46 119
91 121 101 3 9 11 42 17 72 6 30 18 83 27 117 l14 62 -60 90 c-58 86 -67 94
-183 171 -68 44 -215 125 -328 181 -113 55 -220 108 -239 117 -29 15 -41 35
-98 162 -100 227 -171 411 -177 460 -3 25 -8 74 -12 110 -4 36 -8 72 -10 80
-1 8 -3 20 -3 27 -1 6 -24 38 -53 72 l-51 61 -396 -1 c-218 0 -400 -2 -406 -4z"/>
<path d="M8869 8885 c-3 -2 -4 -158 -3 -347 8 -1332 12 -2808 8 -2808 -3 0
-26 10 -52 21 -26 12 -65 29 -87 39 -65 29 -140 41 -188 31 -23 -6 -54 -12
-68 -14 -65 -12 -156 -43 -206 -70 -41 -22 -65 -45 -103 -100 -27 -40 -68 -92
-90 -117 -23 -25 -67 -74 -98 -109 -32 -35 -77 -86 -102 -112 -25 -26 -64 -69
-87 -96 -23 -26 -59 -68 -81 -91 -22 -24 -53 -60 -68 -80 -16 -20 -38 -46 -49
-58 -11 -12 -36 -41 -54 -64 -19 -24 -40 -48 -45 -54 -6 -6 -26 -29 -44 -51
-19 -22 -103 -110 -188 -196 l-155 -156 -9 -59 c-6 -32 -12 -70 -15 -84 -3
-14 -8 -65 -11 -115 -4 -49 -7 -96 -9 -105 -1 -8 9 -44 22 -80 13 -36 26 -73
28 -84 2 -10 11 -28 19 -40 29 -41 142 -154 206 -206 60 -49 172 -148 295
-262 27 -25 59 -55 71 -65 12 -10 68 -61 125 -113 57 -52 128 -117 158 -145
30 -27 65 -59 76 -70 12 -11 64 -58 115 -105 51 -47 98 -90 104 -95 6 -6 49
-42 96 -80 47 -38 87 -72 90 -76 18 -21 318 -15 376 7 l44 17 0 3098 c0 1705
-4 3099 -8 3099 -5 0 -11 -2 -13 -5z"/>
<path d="M284 6904 c-238 -128 -264 -140 -274 -124 -6 9 -10 -399 -10 -1103 0
-981 2 -1118 15 -1123 13 -6 190 88 1220 646 289 157 297 163 253 211 -23 25
-49 63 -103 149 -15 25 -35 54 -45 65 -10 11 -35 52 -56 90 -20 39 -71 123
-113 188 -42 64 -96 152 -121 195 -25 42 -69 115 -98 162 -30 47 -59 94 -65
105 -7 11 -15 22 -19 25 -3 3 -36 57 -72 120 -78 134 -144 241 -167 267 -9 10
-32 48 -52 84 -40 72 -64 99 -75 82 -4 -6 -15 -7 -27 -2 -11 4 -14 8 -7 8 15
1 16 21 1 21 -7 0 -17 -6 -23 -14 -6 -8 -22 -17 -36 -21 -23 -6 -24 -5 -7 9
10 8 14 16 10 19 -5 3 -63 -23 -129 -59z"/>
<path d="M5780 6820 c-18 -12 -2 -12 25 0 13 6 15 9 5 9 -8 0 -22 -4 -30 -9z"/>
<path d="M8881 1624 c0 -11 3 -14 6 -6 3 7 2 16 -1 19 -3 4 -6 -2 -5 -13z"/>
<path d="M8881 1584 c0 -11 3 -14 6 -6 3 7 2 16 -1 19 -3 4 -6 -2 -5 -13z"/>
<path d="M8883 1525 c0 -22 2 -30 4 -17 2 12 2 30 0 40 -3 9 -5 -1 -4 -23z"/>
</g>
</svg>
